<mxfile host="app.diagrams.net" modified="2024-05-28T13:25:41.509Z" agent="Mozilla/5.0 (X11; Linux x86_64; rv:126.0) Gecko/20100101 Firefox/126.0" etag="vfnSPyjb43zKTq7_U_XO" version="24.4.8" type="device">
  <diagram name="Page-1" id="0gJbcg0XPNFQ-sTSEnto">
    <mxGraphModel dx="839" dy="444" grid="1" gridSize="10" guides="1" tooltips="1" connect="1" arrows="1" fold="1" page="1" pageScale="1" pageWidth="850" pageHeight="1100" math="0" shadow="0">
      <root>
        <mxCell id="0" />
        <mxCell id="1" parent="0" />
        <mxCell id="5U8ytU4bZrLR5_oLVIPA-5" value="" style="edgeStyle=orthogonalEdgeStyle;rounded=0;orthogonalLoop=1;jettySize=auto;html=1;startArrow=classic;startFill=1;strokeColor=#000000;" edge="1" parent="1" source="5U8ytU4bZrLR5_oLVIPA-1" target="5U8ytU4bZrLR5_oLVIPA-4">
          <mxGeometry relative="1" as="geometry" />
        </mxCell>
        <mxCell id="5U8ytU4bZrLR5_oLVIPA-1" value="QUIC" style="rounded=0;whiteSpace=wrap;html=1;fillColor=#f5f5f5;fontColor=#333333;strokeColor=#666666;" vertex="1" parent="1">
          <mxGeometry x="40" y="230" width="120" height="60" as="geometry" />
        </mxCell>
        <mxCell id="5U8ytU4bZrLR5_oLVIPA-3" value="New Path" style="edgeStyle=orthogonalEdgeStyle;rounded=0;orthogonalLoop=1;jettySize=auto;html=1;startArrow=classic;startFill=1;dashed=1;entryX=0;entryY=0.5;entryDx=0;entryDy=0;exitX=0;exitY=0.5;exitDx=0;exitDy=0;strokeWidth=1;fontSize=12;textDirection=vertical-lr;labelPosition=left;verticalLabelPosition=middle;align=right;verticalAlign=middle;" edge="1" parent="1" source="5U8ytU4bZrLR5_oLVIPA-2" target="5U8ytU4bZrLR5_oLVIPA-1">
          <mxGeometry relative="1" as="geometry">
            <Array as="points">
              <mxPoint x="25" y="320" />
              <mxPoint x="25" y="260" />
            </Array>
          </mxGeometry>
        </mxCell>
        <mxCell id="5U8ytU4bZrLR5_oLVIPA-6" style="edgeStyle=orthogonalEdgeStyle;rounded=0;orthogonalLoop=1;jettySize=auto;html=1;startArrow=classic;startFill=1;exitX=1;exitY=0.25;exitDx=0;exitDy=0;fillColor=#0050ef;strokeColor=#000000;" edge="1" parent="1" source="5U8ytU4bZrLR5_oLVIPA-2" target="5U8ytU4bZrLR5_oLVIPA-4">
          <mxGeometry relative="1" as="geometry" />
        </mxCell>
        <mxCell id="5U8ytU4bZrLR5_oLVIPA-2" value="ICE Agent" style="rounded=0;whiteSpace=wrap;html=1;fillColor=#bac8d3;strokeColor=#23445d;" vertex="1" parent="1">
          <mxGeometry x="40" y="290" width="120" height="60" as="geometry" />
        </mxCell>
        <mxCell id="5U8ytU4bZrLR5_oLVIPA-13" value="Data" style="edgeStyle=orthogonalEdgeStyle;rounded=0;orthogonalLoop=1;jettySize=auto;html=1;startArrow=classic;startFill=1;fontStyle=1;fontSize=12;verticalAlign=bottom;" edge="1" parent="1" source="5U8ytU4bZrLR5_oLVIPA-4" target="5U8ytU4bZrLR5_oLVIPA-12">
          <mxGeometry relative="1" as="geometry" />
        </mxCell>
        <mxCell id="5U8ytU4bZrLR5_oLVIPA-4" value="QUICHEPERF" style="rounded=0;whiteSpace=wrap;html=1;fillColor=#f5f5f5;fontColor=#333333;strokeColor=#666666;" vertex="1" parent="1">
          <mxGeometry x="200" y="230" width="120" height="60" as="geometry" />
        </mxCell>
        <mxCell id="5U8ytU4bZrLR5_oLVIPA-7" value="" style="edgeStyle=orthogonalEdgeStyle;rounded=0;orthogonalLoop=1;jettySize=auto;html=1;startArrow=classic;startFill=1;" edge="1" parent="1" source="5U8ytU4bZrLR5_oLVIPA-8" target="5U8ytU4bZrLR5_oLVIPA-12">
          <mxGeometry relative="1" as="geometry" />
        </mxCell>
        <mxCell id="5U8ytU4bZrLR5_oLVIPA-8" value="QUIC" style="rounded=0;whiteSpace=wrap;html=1;fillColor=#f5f5f5;fontColor=#333333;strokeColor=#666666;" vertex="1" parent="1">
          <mxGeometry x="538" y="230" width="120" height="60" as="geometry" />
        </mxCell>
        <mxCell id="5U8ytU4bZrLR5_oLVIPA-9" value="" style="edgeStyle=orthogonalEdgeStyle;rounded=0;orthogonalLoop=1;jettySize=auto;html=1;startArrow=classic;startFill=1;dashed=1;exitX=1;exitY=0.5;exitDx=0;exitDy=0;entryX=1;entryY=0.5;entryDx=0;entryDy=0;strokeWidth=1;fontSize=12;verticalAlign=middle;textDirection=vertical-lr;labelPosition=right;verticalLabelPosition=middle;align=left;horizontal=1;" edge="1" parent="1" source="5U8ytU4bZrLR5_oLVIPA-11" target="5U8ytU4bZrLR5_oLVIPA-8">
          <mxGeometry relative="1" as="geometry">
            <mxPoint x="708" y="260" as="targetPoint" />
            <Array as="points">
              <mxPoint x="675" y="320" />
              <mxPoint x="675" y="260" />
            </Array>
          </mxGeometry>
        </mxCell>
        <mxCell id="5U8ytU4bZrLR5_oLVIPA-10" style="edgeStyle=orthogonalEdgeStyle;rounded=0;orthogonalLoop=1;jettySize=auto;html=1;entryX=1;entryY=0.5;entryDx=0;entryDy=0;startArrow=classic;startFill=1;exitX=0;exitY=0.25;exitDx=0;exitDy=0;strokeColor=#000000;" edge="1" parent="1" source="5U8ytU4bZrLR5_oLVIPA-11" target="5U8ytU4bZrLR5_oLVIPA-12">
          <mxGeometry relative="1" as="geometry">
            <mxPoint x="668" y="260" as="targetPoint" />
            <Array as="points">
              <mxPoint x="518" y="305" />
              <mxPoint x="518" y="260" />
            </Array>
          </mxGeometry>
        </mxCell>
        <mxCell id="5U8ytU4bZrLR5_oLVIPA-11" value="ICE Agent" style="rounded=0;whiteSpace=wrap;html=1;fillColor=#bac8d3;strokeColor=#23445d;" vertex="1" parent="1">
          <mxGeometry x="538" y="290" width="120" height="60" as="geometry" />
        </mxCell>
        <mxCell id="5U8ytU4bZrLR5_oLVIPA-12" value="QUICHEPERF" style="rounded=0;whiteSpace=wrap;html=1;fillColor=#f5f5f5;fontColor=#333333;strokeColor=#666666;" vertex="1" parent="1">
          <mxGeometry x="378" y="230" width="120" height="60" as="geometry" />
        </mxCell>
        <mxCell id="5U8ytU4bZrLR5_oLVIPA-15" value="&lt;div style=&quot;font-size: 12px;&quot;&gt;ICE Signalling Channel,&lt;/div&gt;&lt;div style=&quot;font-size: 12px;&quot;&gt;&lt;i&gt;&lt;b&gt;via QUIC&lt;/b&gt;&lt;/i&gt;&lt;br style=&quot;font-size: 12px;&quot;&gt;&lt;/div&gt;" style="curved=1;endArrow=classic;html=1;rounded=0;exitX=1;exitY=0.75;exitDx=0;exitDy=0;entryX=0;entryY=0.75;entryDx=0;entryDy=0;startArrow=classic;startFill=1;dashed=1;fontStyle=0;fontSize=12;verticalAlign=top;" edge="1" parent="1" source="5U8ytU4bZrLR5_oLVIPA-2" target="5U8ytU4bZrLR5_oLVIPA-11">
          <mxGeometry x="0.0801" y="-36" width="50" height="50" relative="1" as="geometry">
            <mxPoint x="290" y="380" as="sourcePoint" />
            <mxPoint x="390" y="350" as="targetPoint" />
            <Array as="points">
              <mxPoint x="200" y="335" />
              <mxPoint x="360" y="260" />
              <mxPoint x="510" y="335" />
            </Array>
            <mxPoint as="offset" />
          </mxGeometry>
        </mxCell>
        <mxCell id="5U8ytU4bZrLR5_oLVIPA-16" value="1" style="ellipse;whiteSpace=wrap;html=1;aspect=fixed;fontSize=12;fontStyle=1;fillColor=#ffe6cc;strokeColor=#d79b00;" vertex="1" parent="1">
          <mxGeometry x="167" y="225" width="30" height="30" as="geometry" />
        </mxCell>
        <mxCell id="5U8ytU4bZrLR5_oLVIPA-18" value="3" style="ellipse;whiteSpace=wrap;html=1;aspect=fixed;fontSize=12;fontStyle=1;fillColor=#ffe6cc;strokeColor=#d79b00;" vertex="1" parent="1">
          <mxGeometry x="230" y="320" width="30" height="30" as="geometry" />
        </mxCell>
        <mxCell id="5U8ytU4bZrLR5_oLVIPA-19" value="2" style="ellipse;whiteSpace=wrap;html=1;aspect=fixed;fontSize=12;fontStyle=1;fillColor=#ffe6cc;strokeColor=#d79b00;" vertex="1" parent="1">
          <mxGeometry x="4" y="222" width="30" height="30" as="geometry" />
        </mxCell>
        <mxCell id="5U8ytU4bZrLR5_oLVIPA-20" value="4" style="ellipse;whiteSpace=wrap;html=1;aspect=fixed;fontSize=12;fontStyle=1;fillColor=#ffe6cc;strokeColor=#d79b00;" vertex="1" parent="1">
          <mxGeometry x="346" y="206" width="30" height="30" as="geometry" />
        </mxCell>
      </root>
    </mxGraphModel>
  </diagram>
</mxfile>
